<svg xmlns="http://www.w3.org/2000/svg" width="17.850393653485078" height="18.850393653484964" style=""><rect id="backgroundrect" width="100%" height="100%" x="0" y="0" fill="none" stroke="none" class="" style=""/>

 <g style="">
  <title>background</title>
  <rect fill="none" id="canvas_background" height="23.4060001373291" width="17.4060001373291" y="-1" x="-1"/>
 </g>
 <g style="" class="currentLayer">
  <title>Layer 1</title>
  <g id="svg_1" transform="rotate(-90.48472595214844 9.074996948242186,10.048114776611326) matrix(0.7188960994359315,0,0,0.5318041258795847,8.398472535680948,6.752794633224911) " class="">
   <path id="svg_2" fill="#1E201D" class="active-path" d="m10.693217459539653,7.0089933757281315 l-8.984,8.539 l-8.984,8.539 c-0.4440000000000005,0.4290000000000003 -1.159,0.4130000000000003 -1.5710000000000002,-0.032000000000000056 c-0.20600000000000004,-0.22100000000000025 -0.31700000000000045,-0.4910000000000003 -0.31700000000000045,-0.776 l0,0 l0,-17.079 l0,-17.079 c0,-0.6190000000000009 0.508,-1.127 1.127,-1.127 c0.31700000000000045,0 0.6190000000000009,0.14300000000000004 0.8250000000000006,0.3650000000000003 l8.92,8.492 l8.984,8.539 c0.4440000000000005,0.4290000000000003 0.4760000000000003,1.127 0.048000000000000057,1.5870000000000002 c-0.016000000000000028,0.01700000000000004 -0.032000000000000056,0.01700000000000004 -0.048000000000000057,0.032000000000000056 l0,0 zm-10.523,6.921 l8.142,-7.73 l-8.142,-7.73 l-7.095,-6.746 l0,14.476 l0,14.476 l7.095,-6.746 z"/>
  </g>
 </g>
</svg>