<svg width="15.406" height="21.406" xmlns="http://www.w3.org/2000/svg">

 <g>
  <title>background</title>
  <rect fill="none" id="canvas_background" height="23.406" width="17.406" y="-1" x="-1"/>
 </g>
 <g>
  <title>Layer 1</title>
  <g id="svg_1" transform="matrix(0.7894694177722918,0,0,0.587037,7.517415435100578,7.51716) ">
   <path id="svg_2" fill="#1E201D" class="active-path" d="m10.079723,6.463135l-8.984,8.539l-8.984,8.539c-0.444,0.429 -1.159,0.413 -1.571,-0.032c-0.206,-0.221 -0.317,-0.491 -0.317,-0.776l0,0l0,-17.079l0,-17.079c0,-0.619 0.508,-1.127 1.127,-1.127c0.317,0 0.619,0.143 0.825,0.365l8.92,8.492l8.984,8.539c0.444,0.429 0.476,1.127 0.048,1.587c-0.016,0.017 -0.032,0.017 -0.048,0.032l0,0zm-10.523,6.921l8.142,-7.73l-8.142,-7.73l-7.095,-6.746l0,14.476l0,14.476l7.095,-6.746z"/>
  </g>
 </g>
</svg>